<svg width="3632" height="1024" viewBox="0 0 3632 1024" fill="none" xmlns="http://www.w3.org/2000/svg">
<path d="M1354.6 702C1335.13 702 1318.07 698.4 1303.4 691.2C1288.73 683.733 1277.27 673.467 1269 660.4C1261 647.067 1257 631.6 1257 614V490C1257 472.133 1261 456.667 1269 443.6C1277.27 430.533 1288.73 420.4 1303.4 413.2C1318.07 405.733 1335.13 402 1354.6 402C1374.33 402 1391.4 405.733 1405.8 413.2C1420.47 420.4 1431.8 430.533 1439.8 443.6C1448.07 456.667 1452.2 472.133 1452.2 490H1392.2C1392.2 478.267 1388.87 469.333 1382.2 463.2C1375.8 457.067 1366.6 454 1354.6 454C1342.6 454 1333.27 457.067 1326.6 463.2C1320.2 469.333 1317 478.267 1317 490V614C1317 625.467 1320.2 634.4 1326.6 640.8C1333.27 646.933 1342.6 650 1354.6 650C1366.6 650 1375.8 646.933 1382.2 640.8C1388.87 634.4 1392.2 625.467 1392.2 614V588.8H1349V538H1452.2V614C1452.2 631.6 1448.07 647.067 1439.8 660.4C1431.8 673.467 1420.47 683.733 1405.8 691.2C1391.4 698.4 1374.33 702 1354.6 702ZM1592.84 702C1573.38 702 1556.44 698.4 1542.04 691.2C1527.64 683.733 1516.44 673.467 1508.44 660.4C1500.71 647.067 1496.84 631.6 1496.84 614V562C1496.84 544.4 1500.71 529.067 1508.44 516C1516.44 502.667 1527.64 492.4 1542.04 485.2C1556.44 477.733 1573.38 474 1592.84 474C1612.58 474 1629.51 477.733 1643.64 485.2C1658.04 492.4 1669.11 502.667 1676.84 516C1684.84 529.067 1688.84 544.4 1688.84 562V614C1688.84 631.6 1684.84 647.067 1676.84 660.4C1669.11 673.467 1658.04 683.733 1643.64 691.2C1629.51 698.4 1612.58 702 1592.84 702ZM1592.84 650C1604.58 650 1613.51 646.933 1619.64 640.8C1625.78 634.4 1628.84 625.467 1628.84 614V562C1628.84 550.267 1625.78 541.333 1619.64 535.2C1613.51 529.067 1604.58 526 1592.84 526C1581.38 526 1572.44 529.067 1566.04 535.2C1559.91 541.333 1556.84 550.267 1556.84 562V614C1556.84 625.467 1559.91 634.4 1566.04 640.8C1572.44 646.933 1581.38 650 1592.84 650ZM1832.69 702C1813.22 702 1796.29 698.4 1781.89 691.2C1767.49 683.733 1756.29 673.467 1748.29 660.4C1740.55 647.067 1736.69 631.6 1736.69 614V562C1736.69 544.4 1740.55 529.067 1748.29 516C1756.29 502.667 1767.49 492.4 1781.89 485.2C1796.29 477.733 1813.22 474 1832.69 474C1852.42 474 1869.35 477.733 1883.49 485.2C1897.89 492.4 1908.95 502.667 1916.69 516C1924.69 529.067 1928.69 544.4 1928.69 562V614C1928.69 631.6 1924.69 647.067 1916.69 660.4C1908.95 673.467 1897.89 683.733 1883.49 691.2C1869.35 698.4 1852.42 702 1832.69 702ZM1832.69 650C1844.42 650 1853.35 646.933 1859.49 640.8C1865.62 634.4 1868.69 625.467 1868.69 614V562C1868.69 550.267 1865.62 541.333 1859.49 535.2C1853.35 529.067 1844.42 526 1832.69 526C1821.22 526 1812.29 529.067 1805.89 535.2C1799.75 541.333 1796.69 550.267 1796.69 562V614C1796.69 625.467 1799.75 634.4 1805.89 640.8C1812.29 646.933 1821.22 650 1832.69 650ZM2049.73 702C2027.6 702 2009.86 694.267 1996.53 678.8C1983.2 663.333 1976.53 642.4 1976.53 616V560C1976.53 533.867 1983.2 513.067 1996.53 497.6C2009.86 481.867 2027.6 474 2049.73 474C2067.86 474 2082.13 479.333 2092.53 490C2102.93 500.4 2108.13 515.067 2108.13 534L2094.13 520H2108.13L2106.13 466V406H2166.13V698H2108.13V656H2094.13L2108.13 642C2108.13 660.933 2102.93 675.733 2092.53 686.4C2082.13 696.8 2067.86 702 2049.73 702ZM2071.33 650C2082.26 650 2090.8 646.933 2096.93 640.8C2103.06 634.4 2106.13 625.467 2106.13 614V562C2106.13 550.533 2103.06 541.733 2096.93 535.6C2090.8 529.2 2082.26 526 2071.33 526C2060.13 526 2051.46 529.2 2045.33 535.6C2039.46 541.733 2036.53 550.533 2036.53 562V614C2036.53 625.467 2039.46 634.4 2045.33 640.8C2051.46 646.933 2060.13 650 2071.33 650ZM2312.38 702C2291.84 702 2273.98 698.533 2258.78 691.6C2243.58 684.667 2231.84 674.933 2223.58 662.4C2215.31 649.867 2211.18 635.067 2211.18 618H2271.18C2271.18 627.867 2274.91 635.733 2282.38 641.6C2290.11 647.2 2300.51 650 2313.58 650C2326.11 650 2335.84 647.2 2342.78 641.6C2349.98 636 2353.58 628.267 2353.58 618.4C2353.58 609.867 2350.91 602.533 2345.58 596.4C2340.24 590.267 2332.78 586.133 2323.18 584L2293.58 577.2C2268.78 571.333 2249.44 560.533 2235.58 544.8C2221.98 528.8 2215.18 509.333 2215.18 486.4C2215.18 469.333 2219.04 454.533 2226.78 442C2234.78 429.2 2245.98 419.333 2260.38 412.4C2274.78 405.467 2291.84 402 2311.58 402C2341.44 402 2365.04 409.467 2382.38 424.4C2399.98 439.067 2408.78 458.933 2408.78 484H2348.78C2348.78 474.667 2345.44 467.333 2338.78 462C2332.38 456.667 2323.04 454 2310.78 454C2299.31 454 2290.51 456.667 2284.38 462C2278.24 467.067 2275.18 474.4 2275.18 484C2275.18 492.533 2277.58 499.867 2282.38 506C2287.44 511.867 2294.51 515.867 2303.58 518L2334.78 525.2C2360.64 531.067 2380.24 541.733 2393.58 557.2C2406.91 572.4 2413.58 591.867 2413.58 615.6C2413.58 632.667 2409.31 647.733 2400.78 660.8C2392.51 673.867 2380.78 684 2365.58 691.2C2350.64 698.4 2332.91 702 2312.38 702ZM2460.22 698V643.6H2536.22V532H2470.22V478H2592.22V643.6H2656.22V698H2460.22ZM2560.22 443.2C2549.29 443.2 2540.49 440.4 2533.82 434.8C2527.42 429.2 2524.22 421.6 2524.22 412C2524.22 402.4 2527.42 394.8 2533.82 389.2C2540.49 383.6 2549.29 380.8 2560.22 380.8C2571.15 380.8 2579.82 383.6 2586.22 389.2C2592.89 394.8 2596.22 402.4 2596.22 412C2596.22 421.6 2592.89 429.2 2586.22 434.8C2579.82 440.4 2571.15 443.2 2560.22 443.2ZM2828.06 698C2812.6 698 2799 694.8 2787.26 688.4C2775.53 681.733 2766.33 672.533 2759.66 660.8C2753.26 649.067 2750.06 635.467 2750.06 620V460H2682.06V406H2810.06V620C2810.06 627.2 2812.2 633.067 2816.46 637.6C2821 641.867 2826.86 644 2834.06 644H2898.06V698H2828.06ZM2994.71 698L2922.71 478H2984.71L3021.51 601.6C3023.64 609.067 3025.77 617.2 3027.91 626C3030.04 634.8 3031.64 641.867 3032.71 647.2C3034.04 641.867 3035.64 634.8 3037.51 626C3039.64 617.2 3041.64 609.2 3043.51 602L3079.91 478H3141.11L3069.91 698H2994.71ZM3272.15 702C3252.68 702 3235.62 698.4 3220.95 691.2C3206.55 683.733 3195.35 673.467 3187.35 660.4C3179.62 647.067 3175.75 631.6 3175.75 614V562C3175.75 544.4 3179.62 529.067 3187.35 516C3195.35 502.667 3206.55 492.4 3220.95 485.2C3235.62 477.733 3252.68 474 3272.15 474C3291.62 474 3308.42 477.733 3322.55 485.2C3336.95 492.4 3348.02 502.667 3355.75 516C3363.75 529.067 3367.75 544.4 3367.75 562V602H3232.95V614C3232.95 627.867 3236.28 638.4 3242.95 645.6C3249.62 652.533 3259.62 656 3272.95 656C3282.28 656 3289.75 654.4 3295.35 651.2C3301.22 648 3305.08 643.6 3306.95 638H3365.75C3360.95 657.2 3350.02 672.667 3332.95 684.4C3316.15 696.133 3295.88 702 3272.15 702ZM3310.55 571.2V561.2C3310.55 547.6 3307.35 537.2 3300.95 530C3294.82 522.8 3285.22 519.2 3272.15 519.2C3259.08 519.2 3249.22 522.933 3242.55 530.4C3236.15 537.867 3232.95 548.4 3232.95 562V568L3314.55 567.2L3310.55 571.2ZM3424.39 698V478H3480.39V520H3495.59L3478.39 545.6C3478.39 521.867 3483.86 504 3494.79 492C3505.73 480 3521.73 474 3542.79 474C3567.06 474 3585.86 481.333 3599.19 496C3612.79 510.667 3619.59 531.333 3619.59 558V576H3555.59V562C3555.59 550 3552.26 540.667 3545.59 534C3539.19 527.333 3530.53 524 3519.59 524C3508.13 524 3499.33 527.333 3493.19 534C3487.33 540.667 3484.39 550 3484.39 562V698H3424.39Z" fill="white"/>
<g clip-path="url(#clip0_4_7)">
<rect x="46" y="19" width="986" height="986" rx="181" fill="url(#paint0_linear_4_7)" stroke="#11111B" stroke-width="38"/>
<g filter="url(#filter0_d_4_7)">
<path d="M357.15 777.515V693.35H394.35V712.88L509.205 728.225V800.3L357.15 777.515ZM375.75 707.3C326.77 707.3 289.415 690.715 263.685 657.545C238.265 624.375 225.555 575.86 225.555 512C225.555 448.14 238.265 399.625 263.685 366.455C289.415 333.285 326.77 316.7 375.75 316.7C424.73 316.7 461.93 333.285 487.35 366.455C513.08 399.625 525.945 448.14 525.945 512C525.945 575.86 513.08 624.375 487.35 657.545C461.93 690.715 424.73 707.3 375.75 707.3ZM375.75 627.785C396.83 627.785 412.485 618.33 422.715 599.42C433.255 580.2 438.525 551.06 438.525 512C438.525 472.94 433.255 443.955 422.715 425.045C412.485 405.825 396.83 396.215 375.75 396.215C354.67 396.215 338.86 405.825 328.32 425.045C318.09 443.955 312.975 472.94 312.975 512C312.975 551.06 318.09 580.2 328.32 599.42C338.86 618.33 354.67 627.785 375.75 627.785ZM650.656 593.84C654.376 605.62 660.731 614.61 669.721 620.81C679.021 626.7 690.801 629.645 705.061 629.645C720.251 629.645 732.186 626.235 740.866 619.415C749.546 612.595 753.886 603.14 753.886 591.05C753.886 582.68 750.941 575.705 745.051 570.125C739.161 564.235 731.256 560.515 721.336 558.965L672.976 551.99C639.806 546.72 614.231 534.165 596.251 514.325C578.271 494.175 569.281 468.29 569.281 436.67C569.281 411.87 574.706 390.635 585.556 372.965C596.716 354.985 612.371 341.19 632.521 331.58C652.981 321.66 677.316 316.7 705.526 316.7C733.736 316.7 758.071 321.505 778.531 331.115C798.991 340.725 814.801 354.675 825.961 372.965C837.431 391.255 843.941 413.42 845.491 439.46H763.651C759.931 424.58 753.111 413.42 743.191 405.98C733.581 398.23 721.026 394.355 705.526 394.355C689.406 394.355 676.851 397.92 667.861 405.05C658.871 411.87 654.376 421.325 654.376 433.415C654.376 441.785 657.321 448.915 663.211 454.805C669.101 460.385 677.006 464.105 686.926 465.965L735.286 472.94C768.456 478.21 794.031 490.92 812.011 511.07C829.991 530.91 838.981 556.485 838.981 587.795C838.981 612.595 833.556 633.985 822.706 651.965C811.856 669.635 796.356 683.275 776.206 692.885C756.366 702.495 732.496 707.3 704.596 707.3C677.006 707.3 652.981 702.96 632.521 694.28C612.371 685.29 596.561 672.27 585.091 655.22C573.621 638.17 567.111 617.71 565.561 593.84H650.656Z" fill="#CBA6F7"/>
</g>
</g>
<defs>
<filter id="filter0_d_4_7" x="223.655" y="316.7" width="639.736" height="509.5" filterUnits="userSpaceOnUse" color-interpolation-filters="sRGB">
<feFlood flood-opacity="0" result="BackgroundImageFix"/>
<feColorMatrix in="SourceAlpha" type="matrix" values="0 0 0 0 0 0 0 0 0 0 0 0 0 0 0 0 0 0 127 0" result="hardAlpha"/>
<feOffset dx="8" dy="16"/>
<feGaussianBlur stdDeviation="4.95"/>
<feComposite in2="hardAlpha" operator="out"/>
<feColorMatrix type="matrix" values="0 0 0 0 0.796078 0 0 0 0 0.65098 0 0 0 0 0.968627 0 0 0 0.25 0"/>
<feBlend mode="normal" in2="BackgroundImageFix" result="effect1_dropShadow_4_7"/>
<feBlend mode="normal" in="SourceGraphic" in2="effect1_dropShadow_4_7" result="shape"/>
</filter>
<linearGradient id="paint0_linear_4_7" x1="115" y1="99" x2="974.5" y2="917.5" gradientUnits="userSpaceOnUse">
<stop stop-color="#363650"/>
<stop offset="0.319001" stop-color="#1E1E2E"/>
</linearGradient>
<clipPath id="clip0_4_7">
<rect width="1024" height="1024" fill="white" transform="translate(27)"/>
</clipPath>
</defs>
</svg>
